<svg xmlns="http://www.w3.org/2000/svg" xmlns:xlink="http://www.w3.org/1999/xlink" width="230" zoomAndPan="magnify" viewBox="0 0 172.5 74.999997" height="100" preserveAspectRatio="xMidYMid meet" version="1.0"><defs><g/><clipPath id="9f0039d6f4"><path d="M 91 1.625 L 139.527344 1.625 L 139.527344 30 L 91 30 Z M 91 1.625 " clip-rule="nonzero"/></clipPath><clipPath id="b14fb96bf5"><path d="M 33.027344 1.625 L 81 1.625 L 81 30 L 33.027344 30 Z M 33.027344 1.625 " clip-rule="nonzero"/></clipPath><clipPath id="5ad2301500"><path d="M 33.027344 2 L 80 2 L 80 30 L 33.027344 30 Z M 33.027344 2 " clip-rule="nonzero"/></clipPath><clipPath id="edc1e07b7c"><path d="M 33.027344 3 L 80 3 L 80 30 L 33.027344 30 Z M 33.027344 3 " clip-rule="nonzero"/></clipPath><clipPath id="54169a8ddb"><path d="M 53 15 L 99 15 L 99 44.375 L 53 44.375 Z M 53 15 " clip-rule="nonzero"/></clipPath></defs><g clip-path="url(#9f0039d6f4)"><path fill="#000000" d="M 93.992188 27.941406 C 93.90625 27.601562 93.777344 27.28125 93.621094 26.976562 C 93.464844 26.664062 93.277344 26.371094 93.074219 26.089844 L 93.011719 26.007812 L 93.011719 25.898438 C 93.003906 25.34375 92.941406 24.789062 92.824219 24.230469 C 92.703125 23.671875 92.523438 23.117188 92.289062 22.558594 L 91.96875 21.8125 L 92.726562 22.117188 C 93.773438 22.542969 94.835938 22.769531 95.820312 22.847656 C 96.96875 22.945312 98.011719 22.839844 98.8125 22.625 C 99.421875 22.453125 99.902344 22.234375 100.261719 21.96875 C 100.628906 21.703125 100.863281 21.390625 100.980469 21.046875 C 101.097656 20.710938 101.097656 20.34375 100.992188 19.957031 C 100.890625 19.585938 100.691406 19.199219 100.402344 18.8125 C 99.867188 18.085938 99.394531 17.378906 99.296875 16.722656 C 99.183594 15.976562 99.515625 15.355469 100.65625 14.964844 C 109.179688 12.035156 117.710938 9.117188 126.238281 6.203125 C 130.511719 4.742188 134.789062 3.277344 139.0625 1.8125 L 139.515625 1.65625 L 139.511719 2.136719 C 139.5 3.277344 139.269531 4.335938 138.859375 5.3125 C 138.460938 6.257812 137.890625 7.132812 137.167969 7.9375 C 136.976562 9.285156 136.527344 10.523438 135.84375 11.648438 C 135.140625 12.8125 134.191406 13.859375 133.019531 14.796875 C 132.683594 15.980469 132.101562 17.015625 131.289062 17.914062 C 130.46875 18.828125 129.414062 19.589844 128.140625 20.210938 C 127.472656 21.417969 126.570312 22.425781 125.441406 23.234375 C 124.304688 24.046875 122.945312 24.65625 121.371094 25.0625 C 120.339844 26.082031 119.1875 26.933594 117.832031 27.507812 C 116.46875 28.089844 114.90625 28.390625 113.0625 28.3125 C 111.898438 28.921875 110.601562 29.34375 109.128906 29.535156 C 107.648438 29.730469 105.992188 29.695312 104.121094 29.390625 C 103.242188 29.65625 102.339844 29.859375 101.328125 29.839844 C 100.308594 29.820312 99.1875 29.570312 97.890625 28.921875 C 97.34375 29 96.765625 28.960938 96.15625 28.835938 C 95.527344 28.703125 94.863281 28.46875 94.179688 28.164062 L 94.03125 28.097656 Z M 93.992188 27.941406 " fill-opacity="1" fill-rule="evenodd"/></g><path fill="#fefefe" d="M 103.496094 18.515625 L 113.375 17.394531 C 114.449219 17.273438 115.441406 16.648438 116.261719 15.824219 C 117.089844 14.992188 117.730469 13.96875 118.082031 13.054688 L 103.5 16.804688 C 103.46875 16.8125 103.429688 16.828125 103.398438 16.84375 C 103.277344 16.910156 103.183594 17.03125 103.132812 17.179688 C 103.078125 17.335938 103.066406 17.519531 103.109375 17.6875 C 103.128906 17.746094 103.148438 17.804688 103.175781 17.859375 C 103.296875 18.082031 103.40625 18.304688 103.496094 18.515625 Z M 97.296875 28.285156 L 95.867188 26.132812 C 95.648438 26.15625 95.429688 26.160156 95.210938 26.144531 C 94.679688 26.105469 94.152344 25.949219 93.679688 25.644531 L 93.683594 25.785156 C 93.882812 26.070312 94.066406 26.363281 94.222656 26.671875 C 94.375 26.964844 94.503906 27.28125 94.601562 27.613281 C 95.1875 27.867188 95.757812 28.0625 96.296875 28.175781 C 96.640625 28.25 96.976562 28.285156 97.296875 28.285156 Z M 93.59375 24.722656 C 94.078125 25.199219 94.660156 25.425781 95.257812 25.472656 C 95.820312 25.511719 96.390625 25.390625 96.90625 25.164062 C 96.796875 25.070312 96.691406 24.96875 96.59375 24.859375 C 95.566406 24.839844 94.53125 24.71875 93.566406 24.527344 C 93.578125 24.59375 93.585938 24.65625 93.59375 24.722656 Z M 93.417969 23.804688 C 93.351562 23.535156 93.273438 23.269531 93.179688 23 C 94.0625 23.285156 94.9375 23.453125 95.769531 23.523438 C 96.992188 23.625 98.113281 23.511719 98.988281 23.273438 C 99.683594 23.082031 100.242188 22.824219 100.664062 22.507812 C 101.144531 22.152344 101.460938 21.734375 101.621094 21.269531 C 101.78125 20.800781 101.78125 20.296875 101.640625 19.777344 C 101.515625 19.324219 101.285156 18.867188 100.945312 18.410156 C 100.464844 17.761719 100.039062 17.132812 99.964844 16.625 C 99.902344 16.214844 100.128906 15.859375 100.878906 15.601562 C 109.398438 12.671875 117.929688 9.757812 126.457031 6.839844 C 130.578125 5.429688 134.699219 4.023438 138.816406 2.613281 C 138.757812 3.476562 138.554688 4.289062 138.238281 5.050781 C 137.855469 5.957031 137.300781 6.792969 136.601562 7.5625 L 136.554688 7.613281 L 103.335938 16.152344 C 103.242188 16.175781 103.15625 16.210938 103.078125 16.25 C 102.796875 16.402344 102.601562 16.65625 102.496094 16.957031 C 102.394531 17.234375 102.382812 17.554688 102.457031 17.851562 C 102.484375 17.964844 102.527344 18.074219 102.582031 18.171875 C 103.082031 19.109375 103.3125 19.910156 103.328125 20.597656 C 103.34375 21.519531 102.957031 22.238281 102.3125 22.78125 C 101.636719 23.347656 100.667969 23.730469 99.566406 23.953125 C 97.664062 24.335938 95.375 24.242188 93.417969 23.804688 Z M 136.417969 8.34375 C 136.203125 9.40625 135.816406 10.386719 135.261719 11.300781 C 134.59375 12.40625 133.679688 13.410156 132.554688 14.308594 L 117.578125 15.328125 C 118.179688 14.507812 118.628906 13.625 118.863281 12.855469 Z M 132.246094 15.003906 C 131.929688 15.925781 131.4375 16.746094 130.789062 17.464844 C 130.015625 18.320312 129.015625 19.042969 127.804688 19.625 L 113.738281 19.285156 C 114.042969 18.84375 114.269531 18.351562 114.402344 17.84375 C 115.269531 17.539062 116.066406 16.980469 116.742188 16.300781 C 116.824219 16.214844 116.90625 16.128906 116.988281 16.039062 Z M 127.3125 20.289062 L 113.199219 19.949219 C 112.976562 20.179688 112.726562 20.394531 112.457031 20.585938 C 111.882812 20.992188 111.207031 21.296875 110.457031 21.464844 C 110.28125 21.792969 110.0625 22.097656 109.808594 22.382812 L 121.128906 24.429688 C 122.660156 24.042969 123.964844 23.460938 125.046875 22.6875 C 125.964844 22.03125 126.722656 21.230469 127.3125 20.289062 Z M 120.464844 24.992188 L 109.191406 22.953125 C 108.804688 23.257812 108.363281 23.511719 107.882812 23.699219 C 107.320312 23.921875 106.707031 24.050781 106.054688 24.074219 C 105.796875 24.328125 105.503906 24.558594 105.1875 24.765625 L 112.945312 27.632812 L 112.996094 27.636719 C 114.777344 27.722656 116.269531 27.441406 117.566406 26.890625 C 118.652344 26.429688 119.601562 25.773438 120.464844 24.992188 Z M 112.082031 28.03125 C 111.164062 28.4375 110.15625 28.722656 109.039062 28.871094 C 107.640625 29.054688 106.058594 29.023438 104.273438 28.734375 L 104.300781 28.699219 L 100.636719 25.945312 C 101.09375 25.839844 101.527344 25.671875 101.921875 25.460938 C 102.308594 25.535156 102.691406 25.550781 103.074219 25.515625 C 103.519531 25.472656 103.960938 25.355469 104.378906 25.183594 Z M 103.429688 28.886719 C 102.761719 29.0625 102.078125 29.183594 101.34375 29.167969 C 100.390625 29.148438 99.339844 28.90625 98.097656 28.273438 L 98.09375 28.269531 L 96.585938 25.996094 C 96.917969 25.898438 97.234375 25.765625 97.535156 25.597656 C 97.980469 25.847656 98.464844 25.988281 98.960938 26.050781 C 99.203125 26.078125 99.445312 26.085938 99.6875 26.078125 Z M 97.605469 24.851562 C 98.042969 25.152344 98.53125 25.320312 99.039062 25.378906 C 99.699219 25.460938 100.382812 25.359375 101 25.136719 C 100.722656 24.996094 100.445312 24.8125 100.1875 24.582031 L 100.109375 24.519531 C 99.976562 24.554688 99.839844 24.582031 99.699219 24.609375 C 99.035156 24.742188 98.328125 24.824219 97.605469 24.851562 Z M 100.902344 24.289062 C 101.566406 24.761719 102.300781 24.914062 103.007812 24.84375 C 103.761719 24.773438 104.484375 24.460938 105.082031 24.019531 C 104.832031 23.988281 104.574219 23.9375 104.320312 23.871094 L 102.605469 23.414062 C 102.128906 23.777344 101.546875 24.066406 100.902344 24.289062 Z M 103.1875 22.871094 L 104.492188 23.21875 C 105.628906 23.523438 106.71875 23.433594 107.640625 23.070312 C 108.441406 22.757812 109.113281 22.234375 109.582031 21.585938 C 109.402344 21.601562 109.21875 21.605469 109.035156 21.601562 L 103.902344 21.503906 C 103.773438 22.023438 103.527344 22.476562 103.1875 22.871094 Z M 103.996094 20.832031 C 104 20.753906 104.003906 20.667969 104 20.589844 C 103.992188 20.148438 103.910156 19.675781 103.746094 19.164062 L 113.449219 18.066406 C 113.507812 18.058594 113.570312 18.050781 113.632812 18.039062 C 113.34375 18.816406 112.796875 19.519531 112.0625 20.035156 C 111.257812 20.605469 110.222656 20.953125 109.042969 20.929688 Z M 103.996094 20.832031 " fill-opacity="1" fill-rule="evenodd"/><path fill="#101731" d="M 103.496094 18.515625 L 113.375 17.394531 C 114.449219 17.273438 115.441406 16.648438 116.261719 15.824219 C 116.957031 15.128906 117.515625 14.296875 117.886719 13.511719 L 103.5 17.207031 C 103.46875 17.21875 103.429688 17.230469 103.398438 17.25 C 103.277344 17.316406 103.183594 17.4375 103.132812 17.582031 C 103.125 17.613281 103.113281 17.640625 103.105469 17.671875 L 103.109375 17.6875 C 103.128906 17.746094 103.148438 17.804688 103.175781 17.859375 C 103.296875 18.082031 103.40625 18.304688 103.496094 18.515625 Z M 97.023438 28.277344 L 95.867188 26.539062 C 95.648438 26.558594 95.429688 26.566406 95.210938 26.546875 C 94.785156 26.515625 94.363281 26.410156 93.964844 26.214844 C 94.058594 26.363281 94.144531 26.515625 94.222656 26.671875 C 94.375 26.964844 94.503906 27.28125 94.601562 27.613281 C 95.1875 27.867188 95.757812 28.0625 96.296875 28.175781 C 96.542969 28.226562 96.785156 28.261719 97.023438 28.277344 Z M 96.609375 25.28125 L 96.59375 25.265625 C 95.691406 25.246094 94.785156 25.152344 93.925781 25 C 94.335938 25.289062 94.792969 25.4375 95.257812 25.472656 C 95.714844 25.503906 96.179688 25.429688 96.609375 25.28125 Z M 103.320312 20.855469 C 103.265625 21.65625 102.898438 22.292969 102.3125 22.78125 C 101.636719 23.347656 100.667969 23.730469 99.566406 23.953125 C 97.664062 24.335938 95.375 24.242188 93.417969 23.804688 C 93.386719 23.6875 93.355469 23.566406 93.320312 23.449219 C 94.15625 23.710938 94.984375 23.863281 95.769531 23.925781 C 96.992188 24.027344 98.113281 23.914062 98.988281 23.675781 C 99.683594 23.488281 100.242188 23.226562 100.664062 22.917969 C 101.144531 22.558594 101.460938 22.136719 101.621094 21.675781 C 101.726562 21.367188 101.761719 21.042969 101.734375 20.710938 C 101.761719 20.410156 101.726562 20.097656 101.640625 19.777344 C 101.515625 19.324219 101.285156 18.867188 100.945312 18.410156 C 100.492188 17.800781 100.089844 17.207031 99.980469 16.714844 C 100.0625 16.4375 100.328125 16.195312 100.878906 16.007812 C 109.398438 13.078125 117.929688 10.160156 126.457031 7.242188 C 130.5625 5.839844 134.667969 4.4375 138.777344 3.03125 C 138.6875 3.742188 138.507812 4.414062 138.238281 5.050781 C 137.855469 5.957031 137.300781 6.792969 136.601562 7.5625 L 136.554688 7.613281 L 103.335938 16.152344 C 103.242188 16.175781 103.15625 16.210938 103.078125 16.25 C 102.796875 16.402344 102.601562 16.65625 102.496094 16.957031 C 102.414062 17.179688 102.390625 17.425781 102.421875 17.671875 C 102.394531 17.863281 102.40625 18.066406 102.457031 18.257812 C 102.484375 18.371094 102.527344 18.480469 102.582031 18.582031 C 103.050781 19.449219 103.28125 20.203125 103.320312 20.855469 Z M 136.320312 8.773438 C 136.09375 9.671875 135.742188 10.515625 135.261719 11.300781 C 134.59375 12.40625 133.679688 13.410156 132.554688 14.308594 L 117.875 15.304688 C 118.328125 14.613281 118.667969 13.898438 118.863281 13.257812 Z M 132.089844 15.421875 C 131.773438 16.175781 131.335938 16.855469 130.789062 17.464844 C 130.015625 18.320312 129.015625 19.042969 127.804688 19.625 L 113.984375 19.292969 C 114.167969 18.960938 114.304688 18.609375 114.402344 18.25 C 115.269531 17.945312 116.066406 17.386719 116.742188 16.707031 C 116.824219 16.621094 116.90625 16.535156 116.988281 16.445312 Z M 127.046875 20.6875 L 113.199219 20.355469 C 112.976562 20.585938 112.726562 20.796875 112.457031 20.992188 C 111.882812 21.398438 111.207031 21.703125 110.457031 21.871094 C 110.351562 22.066406 110.230469 22.253906 110.097656 22.433594 L 121.128906 24.429688 C 122.660156 24.042969 123.964844 23.460938 125.046875 22.6875 C 125.832031 22.125 126.5 21.457031 127.046875 20.6875 Z M 120.078125 25.324219 L 109.191406 23.359375 C 108.804688 23.664062 108.363281 23.917969 107.882812 24.105469 C 107.320312 24.324219 106.707031 24.457031 106.054688 24.476562 C 105.902344 24.628906 105.738281 24.769531 105.5625 24.90625 L 112.945312 27.632812 L 112.996094 27.636719 C 114.777344 27.722656 116.269531 27.441406 117.566406 26.890625 C 118.492188 26.496094 119.320312 25.960938 120.078125 25.324219 Z M 111.5625 28.242188 C 110.789062 28.535156 109.949219 28.75 109.039062 28.871094 C 107.640625 29.054688 106.058594 29.023438 104.273438 28.734375 L 104.300781 28.699219 L 101.03125 26.242188 C 101.34375 26.144531 101.644531 26.015625 101.921875 25.863281 C 102.308594 25.941406 102.691406 25.957031 103.074219 25.917969 C 103.519531 25.875 103.960938 25.761719 104.378906 25.589844 Z M 103.019531 28.988281 C 102.484375 29.105469 101.929688 29.179688 101.34375 29.167969 C 100.390625 29.148438 99.339844 28.90625 98.097656 28.273438 L 98.09375 28.269531 L 96.808594 26.328125 C 97.058594 26.242188 97.304688 26.132812 97.535156 26.007812 C 97.980469 26.25 98.464844 26.394531 98.960938 26.457031 C 99.203125 26.484375 99.445312 26.492188 99.6875 26.480469 Z M 100.550781 25.273438 C 100.429688 25.1875 100.304688 25.09375 100.1875 24.988281 L 100.109375 24.925781 C 99.976562 24.957031 99.839844 24.988281 99.699219 25.015625 C 99.253906 25.105469 98.789062 25.171875 98.316406 25.214844 C 98.550781 25.292969 98.792969 25.351562 99.039062 25.378906 C 99.542969 25.441406 100.0625 25.398438 100.550781 25.273438 Z M 104.585938 24.339844 C 104.496094 24.320312 104.40625 24.296875 104.320312 24.273438 L 102.605469 23.816406 C 102.234375 24.101562 101.796875 24.34375 101.316406 24.539062 C 101.863281 24.8125 102.445312 24.898438 103.007812 24.84375 C 103.5625 24.792969 104.101562 24.609375 104.585938 24.339844 Z M 109.234375 22.007812 C 109.167969 22.007812 109.101562 22.007812 109.035156 22.007812 L 103.902344 21.910156 C 103.8125 22.289062 103.652344 22.628906 103.445312 22.9375 L 104.492188 23.21875 C 105.628906 23.523438 106.71875 23.433594 107.640625 23.070312 C 108.257812 22.828125 108.800781 22.460938 109.234375 22.007812 Z M 113.441406 18.46875 C 113.125 19.074219 112.660156 19.617188 112.0625 20.035156 C 111.257812 20.605469 110.222656 20.953125 109.042969 20.929688 L 103.996094 20.832031 C 104 20.753906 104.003906 20.667969 104 20.589844 C 103.996094 20.265625 103.945312 19.921875 103.859375 19.558594 Z M 113.441406 18.46875 " fill-opacity="1" fill-rule="evenodd"/><g clip-path="url(#b14fb96bf5)"><path fill="#000000" d="M 78.554688 27.941406 C 78.640625 27.601562 78.769531 27.28125 78.925781 26.976562 C 79.082031 26.664062 79.269531 26.371094 79.46875 26.089844 L 79.535156 26.007812 L 79.535156 25.898438 C 79.542969 25.34375 79.605469 24.789062 79.722656 24.230469 C 79.84375 23.671875 80.019531 23.117188 80.257812 22.558594 L 80.578125 21.8125 L 79.820312 22.117188 C 78.769531 22.542969 77.710938 22.769531 76.722656 22.847656 C 75.574219 22.945312 74.535156 22.839844 73.734375 22.625 C 73.125 22.453125 72.640625 22.234375 72.28125 21.96875 C 71.917969 21.703125 71.679688 21.390625 71.566406 21.046875 C 71.449219 20.710938 71.449219 20.34375 71.554688 19.957031 C 71.65625 19.585938 71.851562 19.199219 72.140625 18.8125 C 72.675781 18.085938 73.152344 17.378906 73.25 16.722656 C 73.359375 15.976562 73.03125 15.355469 71.886719 14.964844 C 63.363281 12.035156 54.835938 9.117188 46.308594 6.203125 C 42.03125 4.742188 37.757812 3.277344 33.480469 1.8125 L 33.027344 1.65625 L 33.035156 2.136719 C 33.046875 3.277344 33.273438 4.335938 33.6875 5.3125 C 34.082031 6.257812 34.652344 7.132812 35.375 7.9375 C 35.570312 9.285156 36.019531 10.523438 36.703125 11.648438 C 37.40625 12.8125 38.355469 13.859375 39.523438 14.796875 C 39.863281 15.980469 40.445312 17.015625 41.253906 17.914062 C 42.074219 18.828125 43.128906 19.589844 44.402344 20.210938 C 45.074219 21.417969 45.976562 22.425781 47.105469 23.234375 C 48.238281 24.046875 49.597656 24.65625 51.175781 25.0625 C 52.207031 26.082031 53.355469 26.933594 54.710938 27.507812 C 56.074219 28.089844 57.640625 28.390625 59.488281 28.3125 C 60.644531 28.921875 61.945312 29.34375 63.417969 29.535156 C 64.894531 29.730469 66.550781 29.695312 68.421875 29.390625 C 69.300781 29.65625 70.203125 29.859375 71.21875 29.839844 C 72.238281 29.820312 73.355469 29.570312 74.65625 28.921875 C 75.203125 29 75.78125 28.960938 76.390625 28.835938 C 77.019531 28.703125 77.683594 28.46875 78.363281 28.164062 L 78.515625 28.097656 Z M 78.554688 27.941406 " fill-opacity="1" fill-rule="evenodd"/></g><g clip-path="url(#5ad2301500)"><path fill="#fefefe" d="M 69.046875 18.515625 L 59.171875 17.394531 C 58.097656 17.273438 57.101562 16.648438 56.285156 15.824219 C 55.453125 14.992188 54.816406 13.96875 54.464844 13.054688 L 69.042969 16.804688 C 69.078125 16.8125 69.113281 16.828125 69.144531 16.84375 L 69.148438 16.84375 C 69.269531 16.910156 69.359375 17.03125 69.410156 17.179688 C 69.46875 17.335938 69.480469 17.519531 69.433594 17.6875 C 69.417969 17.746094 69.398438 17.804688 69.367188 17.859375 C 69.246094 18.082031 69.140625 18.304688 69.046875 18.515625 Z M 75.246094 28.285156 L 76.679688 26.132812 C 76.898438 26.15625 77.117188 26.160156 77.335938 26.144531 C 77.867188 26.105469 78.390625 25.949219 78.867188 25.644531 L 78.863281 25.785156 C 78.664062 26.070312 78.480469 26.363281 78.320312 26.671875 C 78.171875 26.964844 78.042969 27.28125 77.945312 27.613281 C 77.355469 27.867188 76.789062 28.0625 76.25 28.175781 C 75.902344 28.25 75.570312 28.285156 75.246094 28.285156 Z M 78.949219 24.722656 C 78.46875 25.199219 77.882812 25.425781 77.289062 25.472656 C 76.726562 25.511719 76.152344 25.390625 75.640625 25.164062 C 75.75 25.070312 75.851562 24.96875 75.949219 24.859375 C 76.980469 24.839844 78.015625 24.71875 78.980469 24.527344 C 78.96875 24.59375 78.960938 24.65625 78.949219 24.722656 Z M 79.128906 23.804688 C 79.195312 23.535156 79.273438 23.269531 79.367188 23 C 78.484375 23.285156 77.605469 23.453125 76.78125 23.523438 C 75.554688 23.625 74.429688 23.511719 73.554688 23.273438 C 72.859375 23.082031 72.304688 22.824219 71.878906 22.507812 C 71.398438 22.152344 71.085938 21.734375 70.925781 21.269531 C 70.765625 20.800781 70.761719 20.296875 70.902344 19.777344 C 71.027344 19.324219 71.261719 18.867188 71.601562 18.410156 C 72.082031 17.761719 72.503906 17.132812 72.582031 16.625 C 72.640625 16.214844 72.417969 15.859375 71.667969 15.601562 C 63.144531 12.671875 54.617188 9.757812 46.085938 6.839844 C 41.96875 5.429688 37.847656 4.023438 33.726562 2.613281 C 33.789062 3.476562 33.988281 4.289062 34.308594 5.050781 C 34.691406 5.957031 35.242188 6.792969 35.945312 7.5625 L 35.992188 7.613281 L 69.210938 16.152344 C 69.304688 16.175781 69.390625 16.210938 69.46875 16.25 C 69.75 16.402344 69.945312 16.65625 70.050781 16.957031 C 70.148438 17.234375 70.164062 17.554688 70.085938 17.851562 C 70.058594 17.964844 70.019531 18.074219 69.964844 18.171875 C 69.460938 19.109375 69.230469 19.910156 69.21875 20.597656 C 69.203125 21.519531 69.585938 22.238281 70.234375 22.78125 C 70.910156 23.347656 71.878906 23.730469 72.980469 23.953125 C 74.878906 24.335938 77.171875 24.242188 79.128906 23.804688 Z M 36.128906 8.34375 C 36.34375 9.40625 36.730469 10.386719 37.28125 11.300781 C 37.953125 12.40625 38.867188 13.410156 39.992188 14.308594 L 54.96875 15.328125 C 54.363281 14.507812 53.914062 13.625 53.683594 12.855469 Z M 40.296875 15.003906 C 40.617188 15.925781 41.109375 16.746094 41.757812 17.464844 C 42.53125 18.320312 43.527344 19.042969 44.738281 19.625 L 58.808594 19.285156 C 58.503906 18.84375 58.277344 18.351562 58.140625 17.84375 C 57.273438 17.539062 56.480469 16.980469 55.804688 16.300781 C 55.71875 16.214844 55.636719 16.128906 55.554688 16.039062 Z M 45.230469 20.289062 L 59.34375 19.949219 C 59.570312 20.179688 59.820312 20.394531 60.089844 20.585938 C 60.664062 20.992188 61.339844 21.296875 62.089844 21.464844 C 62.265625 21.792969 62.484375 22.097656 62.738281 22.382812 L 51.417969 24.429688 C 49.886719 24.042969 48.578125 23.460938 47.5 22.6875 C 46.582031 22.03125 45.824219 21.230469 45.230469 20.289062 Z M 52.082031 24.992188 L 63.351562 22.953125 C 63.738281 23.257812 64.179688 23.511719 64.660156 23.699219 C 65.222656 23.921875 65.839844 24.050781 66.492188 24.074219 C 66.746094 24.328125 67.039062 24.558594 67.359375 24.765625 L 59.601562 27.632812 L 59.546875 27.636719 C 57.769531 27.722656 56.273438 27.441406 54.976562 26.890625 C 53.890625 26.429688 52.941406 25.773438 52.082031 24.992188 Z M 60.460938 28.03125 C 61.378906 28.4375 62.390625 28.722656 63.503906 28.871094 C 64.90625 29.054688 66.484375 29.023438 68.273438 28.734375 L 68.246094 28.699219 L 71.910156 25.945312 C 71.453125 25.839844 71.015625 25.671875 70.621094 25.460938 C 70.242188 25.535156 69.855469 25.550781 69.472656 25.515625 C 69.023438 25.472656 68.585938 25.355469 68.167969 25.183594 Z M 69.117188 28.886719 C 69.78125 29.0625 70.464844 29.183594 71.207031 29.167969 C 72.152344 29.148438 73.207031 28.90625 74.449219 28.273438 L 74.449219 28.269531 L 75.960938 25.996094 C 75.628906 25.898438 75.308594 25.765625 75.011719 25.597656 C 74.566406 25.847656 74.082031 25.988281 73.585938 26.050781 C 73.34375 26.078125 73.101562 26.085938 72.859375 26.078125 Z M 74.941406 24.851562 C 74.503906 25.152344 74.011719 25.320312 73.507812 25.378906 C 72.84375 25.460938 72.160156 25.359375 71.546875 25.136719 C 71.824219 24.996094 72.097656 24.8125 72.359375 24.582031 L 72.433594 24.519531 C 72.570312 24.554688 72.707031 24.582031 72.847656 24.609375 C 73.511719 24.742188 74.214844 24.824219 74.941406 24.851562 Z M 71.644531 24.289062 C 70.980469 24.761719 70.246094 24.914062 69.535156 24.84375 C 68.789062 24.773438 68.058594 24.460938 67.464844 24.019531 C 67.714844 23.988281 67.96875 23.9375 68.226562 23.871094 L 69.941406 23.414062 C 70.417969 23.777344 70.996094 24.066406 71.644531 24.289062 Z M 69.359375 22.871094 L 68.050781 23.21875 C 66.917969 23.523438 65.828125 23.433594 64.90625 23.070312 C 64.105469 22.757812 63.429688 22.234375 62.960938 21.585938 C 63.140625 21.601562 63.324219 21.605469 63.507812 21.601562 L 68.644531 21.503906 C 68.769531 22.023438 69.015625 22.476562 69.359375 22.871094 Z M 68.546875 20.832031 C 68.542969 20.753906 68.542969 20.667969 68.542969 20.589844 C 68.550781 20.148438 68.636719 19.675781 68.796875 19.164062 L 59.097656 18.066406 C 59.035156 18.058594 58.972656 18.050781 58.914062 18.039062 C 59.203125 18.816406 59.75 19.519531 60.480469 20.035156 C 61.285156 20.605469 62.324219 20.953125 63.5 20.929688 Z M 68.546875 20.832031 " fill-opacity="1" fill-rule="evenodd"/></g><g clip-path="url(#edc1e07b7c)"><path fill="#101731" d="M 69.046875 18.515625 L 59.171875 17.394531 C 58.097656 17.273438 57.101562 16.648438 56.285156 15.824219 C 55.589844 15.128906 55.03125 14.296875 54.660156 13.511719 L 69.042969 17.207031 C 69.078125 17.21875 69.113281 17.230469 69.144531 17.25 L 69.148438 17.25 C 69.269531 17.316406 69.359375 17.4375 69.410156 17.582031 C 69.421875 17.613281 69.429688 17.640625 69.4375 17.671875 L 69.433594 17.6875 C 69.417969 17.746094 69.398438 17.804688 69.367188 17.859375 C 69.246094 18.082031 69.140625 18.304688 69.046875 18.515625 Z M 75.523438 28.277344 L 76.679688 26.539062 C 76.898438 26.558594 77.117188 26.566406 77.335938 26.546875 C 77.761719 26.515625 78.183594 26.410156 78.578125 26.214844 C 78.488281 26.363281 78.402344 26.515625 78.320312 26.671875 C 78.171875 26.964844 78.042969 27.28125 77.945312 27.613281 C 77.355469 27.867188 76.789062 28.0625 76.25 28.175781 C 76 28.226562 75.761719 28.261719 75.523438 28.277344 Z M 75.9375 25.28125 L 75.949219 25.265625 C 76.851562 25.246094 77.757812 25.152344 78.621094 25 C 78.210938 25.289062 77.753906 25.4375 77.289062 25.472656 C 76.832031 25.503906 76.371094 25.429688 75.9375 25.28125 Z M 69.222656 20.855469 C 69.277344 21.65625 69.648438 22.292969 70.234375 22.78125 C 70.910156 23.347656 71.878906 23.730469 72.980469 23.953125 C 74.878906 24.335938 77.171875 24.242188 79.128906 23.804688 C 79.160156 23.6875 79.191406 23.566406 79.226562 23.449219 C 78.390625 23.710938 77.5625 23.863281 76.78125 23.925781 C 75.554688 24.027344 74.429688 23.914062 73.554688 23.675781 C 72.859375 23.488281 72.304688 23.226562 71.878906 22.917969 C 71.398438 22.558594 71.085938 22.136719 70.925781 21.675781 C 70.820312 21.367188 70.78125 21.042969 70.808594 20.710938 C 70.785156 20.410156 70.816406 20.097656 70.902344 19.777344 C 71.027344 19.324219 71.261719 18.867188 71.601562 18.410156 C 72.054688 17.800781 72.457031 17.207031 72.566406 16.714844 C 72.484375 16.4375 72.21875 16.195312 71.667969 16.007812 C 63.144531 13.078125 54.617188 10.160156 46.085938 7.242188 C 41.980469 5.839844 37.875 4.4375 33.769531 3.03125 C 33.855469 3.742188 34.039062 4.414062 34.308594 5.050781 C 34.691406 5.957031 35.242188 6.792969 35.945312 7.5625 L 35.992188 7.613281 L 69.210938 16.152344 C 69.304688 16.175781 69.390625 16.210938 69.46875 16.25 C 69.75 16.402344 69.945312 16.65625 70.050781 16.957031 C 70.128906 17.179688 70.15625 17.425781 70.121094 17.671875 C 70.148438 17.863281 70.136719 18.066406 70.085938 18.257812 C 70.058594 18.371094 70.019531 18.480469 69.964844 18.582031 C 69.496094 19.449219 69.265625 20.203125 69.222656 20.855469 Z M 36.226562 8.773438 C 36.449219 9.671875 36.804688 10.515625 37.28125 11.300781 C 37.953125 12.40625 38.867188 13.410156 39.992188 14.308594 L 54.671875 15.304688 C 54.214844 14.613281 53.875 13.898438 53.683594 13.257812 Z M 40.457031 15.421875 C 40.773438 16.175781 41.207031 16.855469 41.757812 17.464844 C 42.53125 18.320312 43.527344 19.042969 44.738281 19.625 L 58.5625 19.292969 C 58.378906 18.960938 58.238281 18.609375 58.140625 18.25 C 57.273438 17.945312 56.480469 17.386719 55.804688 16.707031 C 55.71875 16.621094 55.636719 16.535156 55.554688 16.445312 Z M 45.5 20.6875 L 59.34375 20.355469 C 59.570312 20.585938 59.820312 20.796875 60.089844 20.992188 C 60.664062 21.398438 61.339844 21.703125 62.089844 21.871094 C 62.195312 22.066406 62.316406 22.253906 62.449219 22.433594 L 51.417969 24.429688 C 49.886719 24.042969 48.578125 23.460938 47.5 22.6875 C 46.710938 22.125 46.046875 21.457031 45.5 20.6875 Z M 52.464844 25.324219 L 63.351562 23.359375 C 63.738281 23.664062 64.179688 23.917969 64.660156 24.105469 C 65.222656 24.324219 65.839844 24.457031 66.492188 24.476562 C 66.640625 24.628906 66.808594 24.769531 66.980469 24.90625 L 59.601562 27.632812 L 59.546875 27.636719 C 57.769531 27.722656 56.273438 27.441406 54.976562 26.890625 C 54.050781 26.496094 53.222656 25.960938 52.464844 25.324219 Z M 60.984375 28.242188 C 61.757812 28.535156 62.597656 28.75 63.503906 28.871094 C 64.90625 29.054688 66.484375 29.023438 68.273438 28.734375 L 68.246094 28.699219 L 71.515625 26.242188 C 71.203125 26.144531 70.902344 26.015625 70.621094 25.863281 C 70.242188 25.941406 69.855469 25.957031 69.472656 25.917969 C 69.023438 25.875 68.585938 25.761719 68.167969 25.589844 Z M 69.523438 28.988281 C 70.0625 29.105469 70.617188 29.179688 71.207031 29.167969 C 72.152344 29.148438 73.207031 28.90625 74.449219 28.273438 L 74.449219 28.269531 L 75.738281 26.328125 C 75.484375 26.242188 75.242188 26.132812 75.011719 26.007812 C 74.566406 26.25 74.082031 26.394531 73.585938 26.457031 C 73.34375 26.484375 73.101562 26.492188 72.859375 26.480469 Z M 71.992188 25.273438 C 72.117188 25.1875 72.238281 25.09375 72.359375 24.988281 L 72.433594 24.925781 C 72.570312 24.957031 72.707031 24.988281 72.847656 25.015625 C 73.289062 25.105469 73.753906 25.171875 74.230469 25.214844 C 73.996094 25.292969 73.753906 25.351562 73.507812 25.378906 C 73.003906 25.441406 72.484375 25.398438 71.992188 25.273438 Z M 67.960938 24.339844 C 68.050781 24.320312 68.136719 24.296875 68.226562 24.273438 L 69.941406 23.816406 C 70.3125 24.101562 70.75 24.34375 71.230469 24.539062 C 70.683594 24.8125 70.101562 24.898438 69.535156 24.84375 C 68.984375 24.792969 68.445312 24.609375 67.960938 24.339844 Z M 63.3125 22.007812 C 63.375 22.007812 63.441406 22.007812 63.507812 22.007812 L 68.644531 21.910156 C 68.734375 22.289062 68.890625 22.628906 69.097656 22.9375 L 68.050781 23.21875 C 66.917969 23.523438 65.828125 23.433594 64.90625 23.070312 C 64.289062 22.828125 63.742188 22.460938 63.3125 22.007812 Z M 59.105469 18.46875 C 59.417969 19.074219 59.886719 19.617188 60.480469 20.035156 C 61.285156 20.605469 62.324219 20.953125 63.5 20.929688 L 68.546875 20.832031 C 68.542969 20.753906 68.542969 20.667969 68.542969 20.589844 C 68.550781 20.265625 68.597656 19.921875 68.6875 19.558594 Z M 59.105469 18.46875 " fill-opacity="1" fill-rule="evenodd"/></g><g clip-path="url(#54169a8ddb)"><path fill="#fefefe" d="M 84.5 19.082031 C 85.21875 19.144531 87.0625 19.539062 87.257812 18.652344 C 87.4375 17.851562 87.953125 17.179688 88.609375 16.679688 C 90.78125 15.035156 93.746094 15.523438 94.410156 18.386719 C 94.484375 18.707031 94.582031 19.003906 94.699219 19.300781 C 95.390625 21.085938 96.039062 22.203125 96.386719 24.203125 C 98.324219 27.617188 98.773438 31.253906 97.273438 34.925781 C 94.90625 36.34375 93.367188 37.726562 90.265625 37.996094 C 85.050781 38.453125 84.070312 40.015625 80.234375 42.085938 C 79.660156 41.882812 79.566406 41.980469 79.609375 42.386719 C 78.773438 42.71875 77.960938 43.003906 77.09375 43.253906 C 76.582031 42.992188 76.402344 43.046875 76.304688 43.457031 C 75.492188 43.632812 74.726562 43.78125 73.90625 43.914062 C 73.382812 43.613281 73.277344 43.679688 73.128906 44.027344 C 72.351562 44.121094 71.578125 44.195312 70.796875 44.253906 C 70.199219 43.941406 70.089844 43.730469 69.765625 44.308594 C 68.953125 44.332031 68.148438 44.351562 67.335938 44.335938 C 67.035156 44.082031 66.929688 44.078125 66.847656 44.332031 C 66.046875 44.296875 65.25 44.253906 64.449219 44.179688 C 64.160156 43.898438 64.054688 43.824219 63.839844 44.117188 C 62.976562 44 62.117188 43.875 61.257812 43.703125 C 58.597656 43.171875 55.703125 42.21875 53.984375 39.980469 C 53.179688 38.933594 52.375 36.855469 53.835938 35.980469 C 54.40625 33.648438 57.582031 31.613281 60.007812 31.871094 C 62.980469 30.109375 65.773438 28.285156 68.449219 26.300781 C 71.171875 24.28125 73.75 22.050781 76.355469 19.605469 C 77.40625 18.621094 78.921875 17.417969 80.378906 17.167969 C 81.710938 16.941406 83.019531 17.441406 84.5 19.082031 Z M 84.5 19.082031 " fill-opacity="1" fill-rule="evenodd"/></g><path fill="#101731" d="M 62.039062 32.132812 C 61.589844 32.953125 63.542969 33.648438 64.953125 33.066406 C 65.535156 32.820312 66.242188 32.484375 67.027344 32.066406 C 66.476562 31.761719 65.898438 31.5 65.324219 31.296875 C 65.046875 31.203125 64.769531 31.121094 64.496094 31.050781 C 63.589844 31.511719 62.753906 31.882812 62.039062 32.132812 Z M 82.070312 25.210938 C 82.191406 25.316406 82.285156 25.449219 82.355469 25.601562 C 82.601562 26.144531 82.390625 26.765625 81.890625 26.988281 C 81.390625 27.214844 80.789062 26.960938 80.539062 26.421875 C 80.835938 26.683594 81.246094 26.769531 81.605469 26.609375 C 82.109375 26.382812 82.316406 25.761719 82.074219 25.21875 Z M 70.710938 33.457031 C 70.816406 33.574219 70.894531 33.71875 70.945312 33.878906 C 71.121094 34.445312 70.839844 35.039062 70.3125 35.199219 C 69.789062 35.359375 69.222656 35.035156 69.042969 34.46875 C 69.304688 34.765625 69.703125 34.902344 70.078125 34.785156 C 70.605469 34.625 70.886719 34.03125 70.710938 33.464844 Z M 73.015625 31.742188 C 73.132812 31.84375 73.234375 31.980469 73.300781 32.132812 C 73.546875 32.675781 73.335938 33.296875 72.835938 33.519531 C 72.332031 33.746094 71.730469 33.492188 71.488281 32.949219 C 71.78125 33.210938 72.191406 33.296875 72.550781 33.136719 C 73.054688 32.910156 73.261719 32.289062 73.015625 31.746094 Z M 75.347656 30.324219 C 75.464844 30.425781 75.566406 30.554688 75.632812 30.710938 C 75.878906 31.253906 75.667969 31.875 75.167969 32.097656 C 74.667969 32.320312 74.066406 32.066406 73.816406 31.53125 C 74.113281 31.789062 74.523438 31.875 74.882812 31.71875 C 75.382812 31.488281 75.59375 30.867188 75.351562 30.328125 Z M 77.550781 28.660156 C 77.667969 28.765625 77.765625 28.894531 77.835938 29.050781 C 78.078125 29.59375 77.871094 30.214844 77.371094 30.4375 C 76.871094 30.664062 76.265625 30.40625 76.019531 29.871094 C 76.3125 30.128906 76.726562 30.214844 77.085938 30.054688 C 77.585938 29.832031 77.796875 29.207031 77.554688 28.664062 Z M 79.933594 26.992188 C 80.050781 27.097656 80.152344 27.226562 80.222656 27.382812 C 80.464844 27.925781 80.253906 28.546875 79.753906 28.773438 C 79.253906 28.996094 78.652344 28.742188 78.40625 28.203125 C 78.699219 28.460938 79.113281 28.550781 79.46875 28.386719 C 79.972656 28.160156 80.179688 27.539062 79.9375 27 Z M 67.621094 31.746094 C 68.238281 31.410156 68.898438 31.027344 69.578125 30.613281 C 68.980469 30.265625 68.34375 29.976562 67.710938 29.757812 C 67.511719 29.6875 67.320312 29.625 67.125 29.570312 C 66.476562 29.96875 65.84375 30.332031 65.234375 30.664062 C 65.324219 30.695312 65.421875 30.726562 65.511719 30.757812 C 66.230469 31.007812 66.949219 31.347656 67.621094 31.746094 Z M 70.128906 30.273438 C 70.699219 29.921875 71.277344 29.546875 71.863281 29.148438 C 71.316406 28.847656 70.738281 28.589844 70.167969 28.390625 C 69.882812 28.289062 69.601562 28.203125 69.320312 28.132812 C 68.804688 28.492188 68.28125 28.839844 67.769531 29.167969 L 67.90625 29.214844 C 68.660156 29.480469 69.425781 29.839844 70.128906 30.273438 Z M 72.390625 28.789062 C 72.953125 28.40625 73.515625 28 74.070312 27.589844 C 73.503906 27.269531 72.90625 27 72.3125 26.792969 C 72.03125 26.691406 71.757812 26.613281 71.484375 26.542969 C 70.976562 26.941406 70.453125 27.332031 69.929688 27.707031 C 70.070312 27.75 70.214844 27.796875 70.359375 27.847656 C 71.046875 28.089844 71.742188 28.410156 72.390625 28.789062 Z M 74.566406 27.210938 C 75.171875 26.753906 75.765625 26.277344 76.332031 25.796875 C 75.800781 25.507812 75.246094 25.257812 74.695312 25.066406 C 74.332031 24.9375 73.96875 24.832031 73.617188 24.753906 C 73.113281 25.210938 72.585938 25.660156 72.039062 26.101562 C 72.195312 26.144531 72.347656 26.199219 72.503906 26.25 C 73.203125 26.496094 73.90625 26.824219 74.566406 27.210938 Z M 76.796875 25.394531 C 77.347656 24.914062 77.875 24.421875 78.367188 23.929688 C 77.867188 23.664062 77.347656 23.4375 76.832031 23.253906 C 76.382812 23.097656 75.933594 22.976562 75.507812 22.898438 C 75.078125 23.363281 74.613281 23.828125 74.125 24.289062 C 74.378906 24.355469 74.628906 24.433594 74.886719 24.523438 C 75.53125 24.746094 76.179688 25.042969 76.796875 25.394531 Z M 78.78125 23.5 C 79.621094 22.621094 80.328125 21.738281 80.847656 20.882812 C 81.816406 19.28125 83.277344 19.742188 84.988281 20.976562 C 83.460938 18.160156 79.820312 16.242188 77.554688 20.195312 C 77.140625 20.914062 76.59375 21.65625 75.945312 22.40625 C 76.300781 22.480469 76.660156 22.589844 77.019531 22.710938 C 77.617188 22.917969 78.210938 23.1875 78.78125 23.5 Z M 77.089844 20.152344 C 76.5625 20.90625 76 21.621094 75.414062 22.300781 C 75.222656 22.269531 75.035156 22.25 74.855469 22.238281 C 75.605469 21.5625 76.351562 20.867188 77.089844 20.152344 Z M 74.957031 22.816406 C 74.53125 23.289062 74.089844 23.738281 73.636719 24.175781 C 73.339844 24.117188 73.050781 24.074219 72.773438 24.054688 C 73.261719 23.636719 73.746094 23.222656 74.226562 22.796875 C 74.460938 22.78125 74.703125 22.789062 74.957031 22.816406 Z M 73.113281 24.664062 C 72.617188 25.117188 72.105469 25.558594 71.585938 25.976562 C 71.257812 25.898438 70.9375 25.839844 70.628906 25.800781 C 71.125 25.410156 71.621094 25.011719 72.113281 24.605469 C 72.421875 24.589844 72.761719 24.609375 73.113281 24.664062 Z M 70.996094 26.4375 C 70.484375 26.828125 69.960938 27.207031 69.429688 27.574219 C 69.121094 27.5 68.816406 27.441406 68.523438 27.40625 C 69.003906 27.050781 69.480469 26.691406 69.953125 26.328125 C 70.277344 26.328125 70.632812 26.367188 70.996094 26.4375 Z M 68.765625 28.019531 C 68.25 28.351562 67.726562 28.679688 67.195312 28.992188 C 66.960938 28.933594 66.730469 28.875 66.503906 28.835938 C 66.9375 28.535156 67.375 28.234375 67.804688 27.925781 C 68.105469 27.925781 68.429688 27.957031 68.765625 28.019531 Z M 66.472656 29.414062 C 65.828125 29.777344 65.175781 30.128906 64.519531 30.46875 C 64.394531 30.4375 64.269531 30.414062 64.148438 30.390625 C 64.707031 30.035156 65.257812 29.675781 65.800781 29.3125 C 66.015625 29.332031 66.242188 29.367188 66.472656 29.414062 Z M 63.675781 30.890625 C 63.152344 31.148438 62.628906 31.398438 62.101562 31.640625 C 62.535156 31.382812 62.96875 31.121094 63.398438 30.855469 C 63.488281 30.867188 63.582031 30.875 63.675781 30.890625 Z M 54.871094 35.847656 C 55.300781 34.089844 58.507812 32.375 60.183594 32.675781 C 58.132812 33.675781 61.5625 34.847656 63.335938 34.335938 C 64.308594 34.054688 65.824219 33.355469 67.578125 32.394531 C 68.316406 32.867188 68.976562 33.421875 69.46875 34.027344 C 69.566406 34.148438 69.75 34.164062 69.875 34.066406 C 69.996094 33.964844 70.011719 33.785156 69.914062 33.664062 C 69.445312 33.085938 68.832031 32.550781 68.144531 32.082031 C 68.773438 31.726562 69.425781 31.34375 70.09375 30.933594 C 70.78125 31.382812 71.394531 31.910156 71.859375 32.476562 C 71.957031 32.601562 72.136719 32.621094 72.261719 32.523438 C 72.382812 32.421875 72.402344 32.242188 72.304688 32.117188 C 71.851562 31.566406 71.277344 31.054688 70.625 30.601562 C 71.207031 30.238281 71.792969 29.851562 72.378906 29.457031 C 73.136719 29.933594 73.8125 30.503906 74.3125 31.117188 C 74.410156 31.238281 74.59375 31.257812 74.71875 31.15625 C 74.84375 31.054688 74.859375 30.875 74.761719 30.753906 C 74.269531 30.148438 73.621094 29.589844 72.894531 29.105469 C 73.464844 28.714844 74.027344 28.308594 74.582031 27.898438 C 75.316406 28.371094 75.96875 28.921875 76.457031 29.519531 C 76.554688 29.640625 76.738281 29.660156 76.863281 29.558594 C 76.984375 29.460938 77.003906 29.28125 76.902344 29.15625 C 76.417969 28.5625 75.78125 28.007812 75.070312 27.535156 C 75.6875 27.0625 76.289062 26.582031 76.855469 26.101562 C 77.632812 26.585938 78.328125 27.160156 78.839844 27.789062 C 78.9375 27.914062 79.121094 27.933594 79.246094 27.832031 C 79.367188 27.730469 79.386719 27.550781 79.285156 27.425781 C 78.773438 26.792969 78.078125 26.207031 77.308594 25.710938 C 77.875 25.214844 78.40625 24.71875 78.890625 24.230469 C 79.707031 24.726562 80.441406 25.324219 80.976562 25.976562 C 81.074219 26.101562 81.253906 26.121094 81.378906 26.019531 C 81.503906 25.921875 81.523438 25.738281 81.421875 25.617188 C 80.871094 24.941406 80.125 24.320312 79.296875 23.804688 C 80.144531 22.890625 80.816406 22 81.214844 21.179688 C 82.402344 18.734375 86.292969 23.082031 88.480469 23.203125 C 90.332031 23.308594 92.113281 21.527344 92.027344 18.945312 C 91.957031 16.875 89.539062 17.265625 88.839844 19.210938 C 88.421875 20.371094 87.453125 20.90625 85.316406 20.710938 C 85.191406 20.429688 85.046875 20.140625 84.875 19.878906 C 87.316406 20.015625 87.945312 20.050781 88.234375 18.765625 C 88.710938 16.644531 92.921875 15.160156 93.699219 18.507812 C 94.1875 20.613281 95.609375 21.816406 95.886719 26.179688 C 96.015625 28.179688 95.109375 29.742188 93.722656 30.777344 C 91.765625 32.234375 83.429688 32.96875 77.28125 37.816406 C 73.09375 41.121094 59.746094 41.894531 58.59375 39.765625 C 57.292969 37.363281 56.203125 35.6875 54.871094 35.847656 Z M 77.605469 40.261719 C 81.316406 38.4375 85.898438 35.640625 88.933594 35.511719 C 91.015625 35.425781 93.617188 34.457031 95.210938 33.355469 C 97.441406 31.820312 96.527344 27.515625 96.136719 25.199219 C 97.484375 27.539062 97.871094 31.4375 96.78125 34.113281 C 96.5 33.8125 96.289062 33.960938 96.160156 34.605469 C 95.988281 34.738281 95.804688 34.855469 95.613281 34.980469 C 95.296875 34.523438 94.984375 34.738281 94.683594 35.554688 C 94.433594 35.695312 94.175781 35.832031 93.910156 35.964844 C 93.542969 35.285156 93.144531 35.472656 92.722656 36.484375 C 91.679688 36.878906 90.605469 37.121094 89.613281 37.089844 C 86.050781 36.96875 83.472656 39.363281 80.261719 41.09375 C 79.164062 40.78125 78.835938 41.113281 78.859375 41.738281 C 78.367188 41.933594 77.84375 42.105469 77.300781 42.261719 C 76.398438 41.839844 75.859375 41.960938 75.710938 42.664062 C 75.21875 42.769531 74.714844 42.863281 74.203125 42.945312 C 73.390625 42.472656 72.925781 42.621094 72.679688 43.15625 C 72.160156 43.21875 71.636719 43.265625 71.113281 43.304688 C 70.292969 42.878906 69.683594 42.847656 69.378906 43.390625 C 68.816406 43.410156 68.253906 43.417969 67.699219 43.410156 C 67.03125 43.035156 66.46875 42.828125 66.324219 43.371094 C 65.847656 43.34375 65.386719 43.316406 64.9375 43.273438 C 64.304688 42.726562 63.84375 42.683594 63.554688 43.121094 C 60.335938 42.675781 58.09375 41.976562 56.59375 40.996094 C 51.65625 37.765625 54.804688 33.296875 57.960938 40.132812 C 58.761719 41.875 68.445312 43.960938 77.605469 40.261719 Z M 77.605469 40.261719 " fill-opacity="1" fill-rule="evenodd"/><g fill="#000000" fill-opacity="1"><g transform="translate(15.477177, 60.787078)"><g><path d="M 10.15625 -12.1875 L 10.15625 -9.5 L 6.90625 -9.5 L 6.90625 0 L 3.515625 0 L 3.515625 -9.5 L 0.296875 -9.5 L 0.296875 -12.1875 Z M 10.15625 -12.1875 "/></g></g></g><g fill="#000000" fill-opacity="1"><g transform="translate(25.923728, 60.787078)"><g><path d="M 4.359375 -12.1875 L 4.359375 0 L 0.96875 0 L 0.96875 -12.1875 Z M 4.359375 -12.1875 "/></g></g></g><g fill="#000000" fill-opacity="1"><g transform="translate(31.250774, 60.787078)"><g><path d="M 4.359375 -9.484375 L 4.359375 -7.484375 L 8.25 -7.484375 L 8.25 -4.90625 L 4.359375 -4.90625 L 4.359375 -2.71875 L 8.765625 -2.71875 L 8.765625 0 L 0.96875 0 L 0.96875 -12.1875 L 8.765625 -12.1875 L 8.765625 -9.484375 Z M 4.359375 -9.484375 "/></g></g></g><g fill="#000000" fill-opacity="1"><g transform="translate(40.728765, 60.787078)"><g><path d="M 12.265625 0 L 8.875 0 L 4.359375 -6.8125 L 4.359375 0 L 0.96875 0 L 0.96875 -12.1875 L 4.359375 -12.1875 L 8.875 -5.296875 L 8.875 -12.1875 L 12.265625 -12.1875 Z M 12.265625 0 "/></g></g></g><g fill="#000000" fill-opacity="1"><g transform="translate(53.959906, 60.787078)"><g><path d="M 5.796875 -12.1875 C 7.078125 -12.1875 8.195312 -11.929688 9.15625 -11.421875 C 10.125 -10.910156 10.863281 -10.191406 11.375 -9.265625 C 11.894531 -8.347656 12.15625 -7.296875 12.15625 -6.109375 C 12.15625 -4.929688 11.890625 -3.878906 11.359375 -2.953125 C 10.835938 -2.035156 10.097656 -1.3125 9.140625 -0.78125 C 8.179688 -0.257812 7.066406 0 5.796875 0 L 0.96875 0 L 0.96875 -12.1875 Z M 5.53125 -3 C 6.519531 -3 7.296875 -3.269531 7.859375 -3.8125 C 8.429688 -4.351562 8.71875 -5.117188 8.71875 -6.109375 C 8.71875 -7.109375 8.429688 -7.878906 7.859375 -8.421875 C 7.296875 -8.972656 6.519531 -9.25 5.53125 -9.25 L 4.359375 -9.25 L 4.359375 -3 Z M 5.53125 -3 "/></g></g></g><g fill="#000000" fill-opacity="1"><g transform="translate(66.672183, 60.787078)"><g><path d="M 8.6875 -1.984375 L 4.359375 -1.984375 L 3.703125 0 L 0.140625 0 L 4.578125 -12.1875 L 8.5 -12.1875 L 12.921875 0 L 9.34375 0 Z M 7.828125 -4.578125 L 6.515625 -8.53125 L 5.21875 -4.578125 Z M 7.828125 -4.578125 "/></g></g></g><g fill="#000000" fill-opacity="1"><g transform="translate(79.730367, 60.787078)"><g/></g></g><g fill="#000000" fill-opacity="1"><g transform="translate(83.033828, 60.787078)"><g><path d="M 12.828125 -12.1875 L 8.625 0 L 4.296875 0 L 0.0625 -12.1875 L 3.703125 -12.1875 L 6.46875 -3.390625 L 9.21875 -12.1875 Z M 12.828125 -12.1875 "/></g></g></g><g fill="#000000" fill-opacity="1"><g transform="translate(95.953646, 60.787078)"><g><path d="M 4.359375 -12.1875 L 4.359375 0 L 0.96875 0 L 0.96875 -12.1875 Z M 4.359375 -12.1875 "/></g></g></g><g fill="#000000" fill-opacity="1"><g transform="translate(101.280692, 60.787078)"><g><path d="M 7.140625 0 L 4.71875 -4.5 L 4.359375 -4.5 L 4.359375 0 L 0.96875 0 L 0.96875 -12.1875 L 6.3125 -12.1875 C 7.289062 -12.1875 8.117188 -12.015625 8.796875 -11.671875 C 9.484375 -11.335938 10 -10.875 10.34375 -10.28125 C 10.6875 -9.6875 10.859375 -9.019531 10.859375 -8.28125 C 10.859375 -7.457031 10.628906 -6.726562 10.171875 -6.09375 C 9.722656 -5.46875 9.0625 -5.019531 8.1875 -4.75 L 10.9375 0 Z M 4.359375 -6.8125 L 6.03125 -6.8125 C 6.5 -6.8125 6.847656 -6.921875 7.078125 -7.140625 C 7.304688 -7.359375 7.421875 -7.675781 7.421875 -8.09375 C 7.421875 -8.488281 7.300781 -8.796875 7.0625 -9.015625 C 6.832031 -9.242188 6.488281 -9.359375 6.03125 -9.359375 L 4.359375 -9.359375 Z M 4.359375 -6.8125 "/></g></g></g><g fill="#000000" fill-opacity="1"><g transform="translate(112.713092, 60.787078)"><g><path d="M 10.15625 -12.1875 L 10.15625 -9.5 L 6.90625 -9.5 L 6.90625 0 L 3.515625 0 L 3.515625 -9.5 L 0.296875 -9.5 L 0.296875 -12.1875 Z M 10.15625 -12.1875 "/></g></g></g><g fill="#000000" fill-opacity="1"><g transform="translate(123.159644, 60.787078)"><g><path d="M 4.296875 -12.1875 L 4.296875 -5.125 C 4.296875 -4.46875 4.445312 -3.957031 4.75 -3.59375 C 5.050781 -3.238281 5.515625 -3.0625 6.140625 -3.0625 C 6.765625 -3.0625 7.234375 -3.242188 7.546875 -3.609375 C 7.867188 -3.972656 8.03125 -4.476562 8.03125 -5.125 L 8.03125 -12.1875 L 11.421875 -12.1875 L 11.421875 -5.125 C 11.421875 -4 11.179688 -3.039062 10.703125 -2.25 C 10.234375 -1.46875 9.59375 -0.875 8.78125 -0.46875 C 7.96875 -0.0703125 7.066406 0.125 6.078125 0.125 C 5.078125 0.125 4.1875 -0.0703125 3.40625 -0.46875 C 2.632812 -0.875 2.023438 -1.46875 1.578125 -2.25 C 1.140625 -3.03125 0.921875 -3.988281 0.921875 -5.125 L 0.921875 -12.1875 Z M 4.296875 -12.1875 "/></g></g></g><g fill="#000000" fill-opacity="1"><g transform="translate(135.474119, 60.787078)"><g><path d="M 8.6875 -1.984375 L 4.359375 -1.984375 L 3.703125 0 L 0.140625 0 L 4.578125 -12.1875 L 8.5 -12.1875 L 12.921875 0 L 9.34375 0 Z M 7.828125 -4.578125 L 6.515625 -8.53125 L 5.21875 -4.578125 Z M 7.828125 -4.578125 "/></g></g></g><g fill="#000000" fill-opacity="1"><g transform="translate(148.532295, 60.787078)"><g><path d="M 4.359375 -2.59375 L 8.140625 -2.59375 L 8.140625 0 L 0.96875 0 L 0.96875 -12.1875 L 4.359375 -12.1875 Z M 4.359375 -2.59375 "/></g></g></g><g fill="#000000" fill-opacity="1"><g transform="translate(58.144524, 73.023311)"><g><path d="M 2.25 -1.296875 L 5.03125 -1.296875 L 5.03125 0 L 0.453125 0 L 0.453125 -1.203125 L 3.21875 -5.1875 L 0.453125 -5.1875 L 0.453125 -6.46875 L 5.03125 -6.46875 L 5.03125 -5.265625 Z M 2.25 -1.296875 "/></g></g></g><g fill="#000000" fill-opacity="1"><g transform="translate(63.639448, 73.023311)"><g><path d="M 4.59375 -1.140625 L 2.1875 -1.140625 L 1.796875 0 L 0.140625 0 L 2.484375 -6.46875 L 4.3125 -6.46875 L 6.65625 0 L 4.984375 0 Z M 4.1875 -2.359375 L 3.390625 -4.734375 L 2.59375 -2.359375 Z M 4.1875 -2.359375 "/></g></g></g><g fill="#000000" fill-opacity="1"><g transform="translate(70.434345, 73.023311)"><g><path d="M 5.5 -4.390625 C 5.5 -4.015625 5.410156 -3.671875 5.234375 -3.359375 C 5.066406 -3.046875 4.804688 -2.796875 4.453125 -2.609375 C 4.097656 -2.421875 3.65625 -2.328125 3.125 -2.328125 L 2.140625 -2.328125 L 2.140625 0 L 0.578125 0 L 0.578125 -6.46875 L 3.125 -6.46875 C 3.644531 -6.46875 4.082031 -6.378906 4.4375 -6.203125 C 4.789062 -6.023438 5.054688 -5.78125 5.234375 -5.46875 C 5.410156 -5.15625 5.5 -4.796875 5.5 -4.390625 Z M 3 -3.578125 C 3.300781 -3.578125 3.523438 -3.644531 3.671875 -3.78125 C 3.828125 -3.925781 3.90625 -4.128906 3.90625 -4.390625 C 3.90625 -4.648438 3.828125 -4.847656 3.671875 -4.984375 C 3.523438 -5.128906 3.300781 -5.203125 3 -5.203125 L 2.140625 -5.203125 L 2.140625 -3.578125 Z M 3 -3.578125 "/></g></g></g><g fill="#000000" fill-opacity="1"><g transform="translate(76.18742, 73.023311)"><g><path d="M 4.59375 -1.140625 L 2.1875 -1.140625 L 1.796875 0 L 0.140625 0 L 2.484375 -6.46875 L 4.3125 -6.46875 L 6.65625 0 L 4.984375 0 Z M 4.1875 -2.359375 L 3.390625 -4.734375 L 2.59375 -2.359375 Z M 4.1875 -2.359375 "/></g></g></g><g fill="#000000" fill-opacity="1"><g transform="translate(82.982316, 73.023311)"><g><path d="M 5.234375 -6.46875 L 5.234375 -5.203125 L 3.515625 -5.203125 L 3.515625 0 L 1.9375 0 L 1.9375 -5.203125 L 0.21875 -5.203125 L 0.21875 -6.46875 Z M 5.234375 -6.46875 "/></g></g></g><g fill="#000000" fill-opacity="1"><g transform="translate(88.431143, 73.023311)"><g><path d="M 2.140625 -6.46875 L 2.140625 0 L 0.578125 0 L 0.578125 -6.46875 Z M 2.140625 -6.46875 "/></g></g></g><g fill="#000000" fill-opacity="1"><g transform="translate(91.150948, 73.023311)"><g><path d="M 2.140625 -1.21875 L 4.21875 -1.21875 L 4.21875 0 L 0.578125 0 L 0.578125 -6.46875 L 2.140625 -6.46875 Z M 2.140625 -1.21875 "/></g></g></g><g fill="#000000" fill-opacity="1"><g transform="translate(95.54873, 73.023311)"><g><path d="M 2.140625 -1.21875 L 4.21875 -1.21875 L 4.21875 0 L 0.578125 0 L 0.578125 -6.46875 L 2.140625 -6.46875 Z M 2.140625 -1.21875 "/></g></g></g><g fill="#000000" fill-opacity="1"><g transform="translate(99.946511, 73.023311)"><g><path d="M 4.59375 -1.140625 L 2.1875 -1.140625 L 1.796875 0 L 0.140625 0 L 2.484375 -6.46875 L 4.3125 -6.46875 L 6.65625 0 L 4.984375 0 Z M 4.1875 -2.359375 L 3.390625 -4.734375 L 2.59375 -2.359375 Z M 4.1875 -2.359375 "/></g></g></g><g fill="#000000" fill-opacity="1"><g transform="translate(106.741407, 73.023311)"><g><path d="M 2.90625 0.0625 C 2.4375 0.0625 2.015625 -0.0078125 1.640625 -0.15625 C 1.265625 -0.3125 0.960938 -0.539062 0.734375 -0.84375 C 0.515625 -1.144531 0.398438 -1.507812 0.390625 -1.9375 L 2.0625 -1.9375 C 2.09375 -1.695312 2.175781 -1.515625 2.3125 -1.390625 C 2.457031 -1.265625 2.640625 -1.203125 2.859375 -1.203125 C 3.097656 -1.203125 3.285156 -1.253906 3.421875 -1.359375 C 3.554688 -1.460938 3.625 -1.613281 3.625 -1.8125 C 3.625 -1.96875 3.566406 -2.097656 3.453125 -2.203125 C 3.347656 -2.304688 3.21875 -2.390625 3.0625 -2.453125 C 2.90625 -2.523438 2.679688 -2.601562 2.390625 -2.6875 C 1.972656 -2.820312 1.632812 -2.953125 1.375 -3.078125 C 1.113281 -3.203125 0.882812 -3.390625 0.6875 -3.640625 C 0.5 -3.898438 0.40625 -4.234375 0.40625 -4.640625 C 0.40625 -5.242188 0.625 -5.710938 1.0625 -6.046875 C 1.5 -6.390625 2.066406 -6.5625 2.765625 -6.5625 C 3.472656 -6.5625 4.046875 -6.390625 4.484375 -6.046875 C 4.921875 -5.710938 5.15625 -5.238281 5.1875 -4.625 L 3.484375 -4.625 C 3.472656 -4.832031 3.394531 -4.992188 3.25 -5.109375 C 3.113281 -5.234375 2.929688 -5.296875 2.703125 -5.296875 C 2.515625 -5.296875 2.363281 -5.242188 2.25 -5.140625 C 2.132812 -5.046875 2.078125 -4.898438 2.078125 -4.703125 C 2.078125 -4.492188 2.175781 -4.332031 2.375 -4.21875 C 2.570312 -4.101562 2.878906 -3.976562 3.296875 -3.84375 C 3.710938 -3.695312 4.050781 -3.5625 4.3125 -3.4375 C 4.570312 -3.3125 4.796875 -3.125 4.984375 -2.875 C 5.171875 -2.625 5.265625 -2.304688 5.265625 -1.921875 C 5.265625 -1.554688 5.171875 -1.222656 4.984375 -0.921875 C 4.796875 -0.617188 4.523438 -0.378906 4.171875 -0.203125 C 3.816406 -0.0234375 3.394531 0.0625 2.90625 0.0625 Z M 2.90625 0.0625 "/></g></g></g><g fill="#000000" fill-opacity="1"><g transform="translate(112.404985, 73.023311)"><g/></g></g></svg>